<?xml version="1.0" encoding="UTF-8"?>
<svg width="204px" height="30px" viewBox="0 0 204 30" version="1.1" xmlns="http://www.w3.org/2000/svg" xmlns:xlink="http://www.w3.org/1999/xlink">
    <!-- Generator: Sketch 47.1 (45422) - http://www.bohemiancoding.com/sketch -->
    <title>whacha</title>
    <desc>Created with Sketch.</desc>
    <defs></defs>
    <g id="Page-1" stroke="none" stroke-width="1" fill="none" fill-rule="evenodd">
        <g id="Group">
            <rect id="Rectangle-2" stroke="#FFFFFF" stroke-width="3" x="1.5" y="1.5" width="40" height="27"></rect>
            <rect id="Rectangle-3" stroke="#FFFFFF" stroke-width="3" x="7.5" y="7.5" width="27" height="15"></rect>
            <rect id="Rectangle-4" fill="#FFFFFF" x="13" y="13" width="16" height="4"></rect>
        </g>
        <path d="M177,21.8293725 L182.422769,8 L185.931492,8 L191.621168,21.8293725 L187.520491,21.8293725 L186.41744,19.4580434 L181.855424,19.4580434 L180.92355,21.8293725 L177,21.8293725 Z M182.530187,16.8525651 L185.584284,16.8525651 L184.057235,12.7085706 L182.530187,16.8525651 Z" id="Combined-Shape" fill="#FFFFFF"></path>
        <polygon id="Path-2" fill="#FFFFFF" points="60.0164103 8.37141702 64.1175214 21.888622 67.5258042 21.888622 69.5230946 15.1300195 70.9961994 21.888622 74.6608304 21.888622 78.9720766 8.37141702 75.4878567 8.37141702 72.9285051 15.1300195 70.9961994 8.37141702 67.5258042 8.37141702 65.7569975 15.1300195 64.1175214 8.37141702"></polygon>
        <path d="M77.9757376,21.8293725 L83.3985066,8 L86.9072298,8 L92.5969052,21.8293725 L88.4962285,21.8293725 L87.3931779,19.4580434 L82.8311616,19.4580434 L81.8992879,21.8293725 L77.9757376,21.8293725 Z M83.5059244,16.8525651 L86.5600211,16.8525651 L85.0329727,12.7085706 L83.5059244,16.8525651 Z" id="Combined-Shape" fill="#FFFFFF"></path>
        <path d="M134,21.8293725 L139.422769,8 L142.931492,8 L148.621168,21.8293725 L144.520491,21.8293725 L143.41744,19.4580434 L138.855424,19.4580434 L137.92355,21.8293725 L134,21.8293725 Z M139.530187,16.8525651 L142.584284,16.8525651 L141.057235,12.7085706 L139.530187,16.8525651 Z" id="Combined-Shape" fill="#FFFFFF"></path>
        <polygon id="Path-5" fill="#FFFFFF" points="95.5024987 11.5240421 91.4969185 11.5240421 91.4969185 7.99878683 103.039017 7.99878683 103.039017 11.5240421 99.0552534 11.5240421 99.0552534 21.9243609 95.5024987 21.9243609"></polygon>
        <polygon id="Path-6" fill="#FFFFFF" points="119.038239 7.98082048 119.038239 22.0273924 122.825656 22.0273924 122.825656 16.349658 127.797386 16.349658 127.797386 22.0273924 131.549971 22.0273924 131.549971 7.98082048 127.55924 7.98082048 127.55924 12.9254177 122.825656 12.9254177 122.825656 7.98082048"></polygon>
        <path d="M152.047563,8.05506919 L160.011975,8.05506919 C162.403455,9.00740815 163.60054,10.6672792 163.603229,13.0346824 C163.605918,15.4020856 162.408833,16.9296535 160.011975,17.6173859 L156.017761,17.6173859 L156.017761,21.9883431 L152.047563,21.9883431 L152.047563,8.05506919 Z M156.010794,11.5621747 L156.010794,14.3953587 L159.448968,14.3953587 C159.754885,14.3953587 159.922754,13.9231614 159.952576,12.9787667 C159.982397,12.0343721 159.814528,11.5621747 159.448968,11.5621747 L156.010794,11.5621747 Z" id="Combined-Shape" fill="#FFFFFF"></path>
        <polygon id="Path-8" fill="#FFFFFF" points="166.142718 8.15846739 166.142718 21.4729719 175 21.4729719 175 18.1113673 169.954845 18.1113673 169.954845 8.15846739"></polygon>
        <polygon id="Path-9" fill="#FFFFFF" points="190.045301 8.10273502 194.915283 16.7824471 194.915283 22.0427346 198.955146 22.0427346 198.955146 16.7824471 203.608615 8.10273502 199.550786 8.10273502 196.826958 13.5787219 193.974616 8.10273502"></polygon>
        <path d="M116.915404,11.078 C115.694368,8.96830849 114.13,7.734 110.742,7.734 C106.452,7.734 103.68,10.55 103.68,14.95 C103.68,17.106 104.384,19.042 105.66,20.296 C106.87,21.528 108.674,22.188 110.786,22.188 C113.338,22.188 115.34,21.286 116.44,19.658 C116.858,19.02 117.122,18.426 117.364,17.48 L113.688293,16.8657097 C113.600293,17.3717097 113.118,17.9341226 112.92,18.2201226 C112.48,18.8361226 111.688,18.822 110.83,18.822 C109.07,18.822 107.948,17.282 107.948,14.906 C107.948,12.486 109.048,11.2635915 110.83,11.2635915 C111.622,11.2635915 112.48,11.2980304 112.92,11.8040304 C113.206,12.1340304 113.335365,12.3197036 113.533365,12.9797036 L116.915404,11.078 Z" id="c" fill="#FFFFFF"></path>
    </g>
</svg>